<svg width="28" height="28" viewBox="0 0 28 28" fill="none" xmlns="http://www.w3.org/2000/svg">
<circle cx="14" cy="14" r="14" fill="white"/>
<circle cx="14" cy="14" r="13.5" stroke="black" stroke-opacity="0.2"/>
<path d="M20.2071 10.9831C19.7881 11.1693 19.3458 11.2857 18.8802 11.3556C19.3458 11.0762 19.7183 10.6339 19.8812 10.0985C19.4389 10.3546 18.9501 10.5408 18.4146 10.6572C17.9956 10.2149 17.3904 9.93555 16.7386 9.93555C15.4815 9.93555 14.4572 10.9598 14.4572 12.2169C14.4572 12.4031 14.4805 12.5661 14.5271 12.729C12.6415 12.6359 10.9421 11.728 9.80141 10.3313C9.61518 10.6805 9.49878 11.0529 9.49878 11.472C9.49878 12.2634 9.89453 12.9618 10.5231 13.3808C10.1506 13.3576 9.80141 13.2644 9.4755 13.1015V13.1248C9.4755 14.2422 10.267 15.1733 11.3145 15.3828C11.1283 15.4294 10.9188 15.4527 10.7093 15.4527C10.5696 15.4527 10.4067 15.4294 10.267 15.4061C10.5696 16.314 11.4077 16.9891 12.4087 16.9891C11.6172 17.5943 10.6395 17.9668 9.56862 17.9668C9.38239 17.9668 9.19616 17.9668 9.0332 17.9435C10.0575 18.5953 11.2447 18.9678 12.5483 18.9678C16.7618 18.9678 19.0665 15.476 19.0665 12.4497C19.0665 12.3566 19.0665 12.2402 19.0665 12.1471C19.5088 11.8444 19.9045 11.4487 20.2071 10.9831Z" fill="black"/>
<path d="M16.7383 10.4355C17.2476 10.4355 17.7235 10.6545 18.0518 11.001L18.2451 11.2061L18.5205 11.1455C18.5763 11.1334 18.6316 11.119 18.6865 11.1055L18.8857 11.6602C18.8519 11.6851 18.8187 11.7107 18.7842 11.7344L18.5664 11.8838V12.4492L18.5605 12.7139C18.4317 15.458 16.3067 18.4678 12.5479 18.4678C12.0029 18.4677 11.4808 18.3964 10.9844 18.2637C11.6187 18.079 12.2018 17.7767 12.7119 17.3867L13.8857 16.4893H12.4082C11.9122 16.4891 11.4617 16.271 11.1396 15.9219C11.2403 15.9083 11.3398 15.8921 11.4355 15.8682L11.4131 14.8926C10.8319 14.7763 10.3506 14.3734 10.1211 13.835C10.2428 13.8564 10.3666 13.872 10.4922 13.8799L12.3467 13.9961L10.8008 12.9648C10.3067 12.6355 9.99902 12.0905 9.99902 11.4717C9.99903 11.4091 10.0022 11.3477 10.0088 11.2871C11.1972 12.4225 12.7755 13.1432 14.502 13.2285L15.1992 13.2627L15.0078 12.5918C14.9744 12.4749 14.957 12.358 14.957 12.2168C14.9571 11.236 15.7575 10.4357 16.7383 10.4355Z" stroke="black" stroke-opacity="0.2"/>
</svg>
